<svg xmlns="http://www.w3.org/2000/svg" width="500" height="500">
    <defs>
        <style>.cls-1{fill:#cb9964}.cls-2{fill:#fde5c2}</style>
    </defs>
    <g id="Livello_2">
        <circle class="cls-1" cx="250" cy="245.26" r="158.8"/>
        <path class="cls-1"
              d="M431.24 224.83c-13.62-100.1-105.81-170.2-205.91-156.58A182.92 182.92 0 0 0 68.76 274.16c13.62 100.09 105.81 170.19 205.91 156.57s170.19-105.81 156.57-205.9Zm-35.66 61.62c-3.2 6.91-13.36 40.21-15.62 47.33-3.15 9.93-39.89 28.77-45.86 34.55-22.71 22-59.92 33.87-94 30.28-21-2.22-19.72-20.54-55.42-17.2-22 2.06-27.69-17.1-39.44-27.6-14.68-13.13-17.3-14.92-29.64-38.57-9.42-18.06-10.72-33.9-16.4-57.8s11.93-83.3 24.77-98.16a67.23 67.23 0 0 1 8.41-8.21c8.57-7 17.58-10.8 27.28-16 20.69-11.1 26.79-42 74-35.78 4.87.64 15.59.26 32.68-.81 38.55-2.42 52 20.23 68.79 31.09 29 18.79 40.87 24 51.61 55.05 5.95 17.25 30.26 55.61 8.84 101.83Z"/>
        <path d="M249.61 435.43A185.93 185.93 0 0 1 102 137a185.91 185.91 0 0 1 332.19 87.46C448 326 376.65 419.88 275.07 433.7a188.43 188.43 0 0 1-25.46 1.73Zm.76-365.88a182.79 182.79 0 0 0-24.63 1.68 179.91 179.91 0 0 0-154 202.52c12.26 90.1 89.62 155.66 178.14 155.66a179.84 179.84 0 0 0 24.38-1.65c98.3-13.38 167.38-104.23 154-202.53A180 180 0 0 0 250.37 69.55Zm2.07 332.7a118.6 118.6 0 0 1-12.66-.66c-9.2-1-14.56-4.8-19.74-8.51-7.27-5.21-14.78-10.58-35.09-8.69-17.5 1.64-25.82-9.07-33.15-18.52a73.84 73.84 0 0 0-8.57-9.83l-1.77-1.58c-13.29-11.86-16.45-14.68-28.53-37.83-7.15-13.71-9.69-25.88-12.9-41.29-1.12-5.41-2.28-11-3.76-17.21-6.13-25.75 12.28-85.61 25.41-100.81a69.73 69.73 0 0 1 8.8-8.57c6.8-5.55 13.75-9.11 21.11-12.88 2.17-1.1 4.4-2.25 6.65-3.45 5.86-3.15 10.61-8.15 15.64-13.45C186 106.24 199.68 91.8 234 96.31c4.28.56 13.88.31 32.1-.84 30.55-1.91 46.37 11.62 59.08 22.5a112.2 112.2 0 0 0 11.55 9.03c2.55 1.65 5 3.2 7.27 4.67 24.32 15.55 35.41 22.64 45.55 51.92.91 2.63 2.28 5.82 3.88 9.53 8.77 20.36 23.46 54.43 4.87 94.55-2.59 5.59-10.15 29.87-13.78 41.53-.74 2.38-1.33 4.27-1.71 5.45-2.24 7.07-15.69 15.91-33.05 26.72-6.06 3.78-11.79 7.35-13.57 9.08-20.56 19.95-52.38 31.8-83.75 31.8ZM192.8 378c16.49 0 24 5.38 30.73 10.2 5 3.55 9.25 6.62 16.88 7.43 33.53 3.53 69.49-8 91.6-29.45 2.25-2.18 7.69-5.57 14.58-9.86 10.75-6.7 28.75-17.92 30.51-23.44.37-1.18.95-3.06 1.69-5.42 3.95-12.7 11.31-36.33 14.07-42.27 17.46-37.69 3.44-70.22-4.94-89.66-1.64-3.81-3.06-7.1-4-9.94-9.45-27.31-19.31-33.61-43.11-48.83q-3.47-2.2-7.3-4.68a117.31 117.31 0 0 1-12.17-9.55c-12.51-10.7-26.68-22.83-54.8-21.07-18.88 1.19-28.52 1.42-33.26.8-31.32-4.12-43.36 8.57-55 20.84-5.37 5.66-10.44 11-17.16 14.61-2.29 1.23-4.55 2.39-6.74 3.51-7.07 3.61-13.75 7-20.06 12.18a63.23 63.23 0 0 0-8 7.84c-11.84 13.7-29.67 72.21-24.13 95.5 1.5 6.3 2.67 11.93 3.81 17.37 3.11 15 5.57 26.77 12.34 39.74 11.58 22.18 14.27 24.58 27.2 36.13l1.78 1.59a79 79 0 0 1 9.31 10.62c7 9 13.63 17.56 27.85 16.23q4.52-.42 8.32-.42Z"/>
        <path d="M160.88 389.93a3 3 0 0 1-.92-5.86c1.09-.35 26.88-8.57 42-5.47a3 3 0 0 1-1.2 5.88c-13.61-2.79-38.74 5.22-39 5.3a2.91 2.91 0 0 1-.88.15ZM117.25 321.38a3 3 0 0 1-2.61-1.51c-6.81-12-18.12-10.44-18.6-10.36a3 3 0 0 1-.93-5.93c.64-.11 15.83-2.33 24.74 13.32a3 3 0 0 1-1.12 4.09 3 3 0 0 1-1.48.39ZM98.8 237.55a2.94 2.94 0 0 1-1.22-.26 3 3 0 0 1-1.52-4c8.81-19.8-8.88-31.64-9.64-32.13a3 3 0 0 1 3.26-5c.23.15 22.78 15.07 11.86 39.61a3 3 0 0 1-2.74 1.78ZM136.24 151.14a3 3 0 0 1-1.45-5.63c16.54-9.09 15.6-21.73 15.56-22.26a3 3 0 0 1 6-.6c.07.69 1.54 17-18.64 28.12a3 3 0 0 1-1.47.37ZM240.7 102.59h-.28C212.11 100 202.37 88 202 87.51a3 3 0 0 1 4.69-3.74c.17.2 9 10.49 34.32 12.84a3 3 0 0 1-.28 6ZM332 130.38a3 3 0 0 1-2.25-1c-18.69-21.12-12.38-34-12.1-34.53a3 3 0 0 1 5.35 2.7c-.08.18-1.1 2.54-.36 7s3.31 11.49 11.6 20.86a3 3 0 0 1-2.24 5ZM404.33 248.26h-.22a3 3 0 0 1-2.78-3.21c1.14-15.65 8.87-33.62 9.2-34.38a3 3 0 1 1 5.5 2.39c-.08.17-7.65 17.8-8.71 32.43a3 3 0 0 1-2.99 2.77ZM380 336.78a3.12 3.12 0 0 1-.74-.09 3 3 0 0 1-2.17-3.64c7.76-30.73 28.69-29.69 29.58-29.63a3 3 0 0 1-.39 6c-.74 0-16.91-.52-23.38 25.11a3 3 0 0 1-2.9 2.25ZM272.81 400a3 3 0 0 1-1.35-5.68c1.22-.62 30.36-14.94 59.65 0a3 3 0 1 1-2.72 5.34c-26.61-13.58-54-.13-54.24 0a3.07 3.07 0 0 1-1.34.34ZM334.1 371.33a3 3 0 0 1-2-5.23c25-22.48 47.33-14.77 48.27-14.43a3 3 0 0 1-2 5.65c-.83-.29-20.05-6.71-42.22 13.24a3 3 0 0 1-2.05.77ZM208.81 412.43a3 3 0 0 1-2-5.24c.86-.77 21.35-18.74 44.18-10.78a3 3 0 0 1-2 5.67c-19.45-6.78-38 9.42-38.21 9.59a3 3 0 0 1-1.97.76Z"/>
        <ellipse class="cls-2" cx="400.16" cy="320.1" rx="4.08" ry="3.82"/>
        <ellipse class="cls-2" cx="393.19" cy="330.97" rx="5.31" ry="4.08" transform="rotate(-57.3 390.679 331.217)"/>
        <ellipse class="cls-2" cx="347.5" cy="120.49" rx="2.47" ry="1.87"/>
        <ellipse class="cls-2" cx="361.51" cy="370.2" rx="2.47" ry="1.87"/>
        <ellipse class="cls-2" cx="93.12" cy="218.48" rx="2.47" ry="1.87"/>
        <ellipse class="cls-2" cx="88.03" cy="227.63" rx="2.47" ry="1.87"/>
        <ellipse class="cls-2" cx="95.58" cy="283.8" rx="2.47" ry="1.87"/>
        <ellipse class="cls-2" cx="340.39" cy="111.34" rx="2.47" ry="1.87"/>
    </g>
</svg>